<?xml version="1.0" encoding="utf-8"?>
<!-- Generator: Adobe Illustrator 22.0.1, SVG Export Plug-In . SVG Version: 6.00 Build 0)  -->
<svg version="1.1" id="Layer_1" xmlns="http://www.w3.org/2000/svg" xmlns:xlink="http://www.w3.org/1999/xlink" x="0px" y="0px"
	 viewBox="0 0 653.1 687.6" style="enable-background:new 0 0 653.1 687.6;" xml:space="preserve">
<style type="text/css">
	.st0{fill:#707070;}
</style>
<g>
	<path class="st0" d="M553.1,534.5l-72-7.1V298.5c0-0.3-0.2-0.5-0.5-0.5h-44c-0.3,0-0.5,0.2-0.5,0.5V523l-125-12.3V298.5
		c0-0.3-0.2-0.5-0.5-0.5h-44c-0.3,0-0.5,0.2-0.5,0.5v207.8l-135-13.3V298.5c0-0.3-0.2-0.5-0.5-0.5h-44c-0.3,0-0.5,0.2-0.5,0.5v190.1
		l-74-7.3c-1.4-0.1-2.8,0.3-3.8,1.3c-1,0.9-1.6,2.3-1.6,3.7v184.3c0,2.8,2.2,5,5,5h541c2.8,0,5-2.2,5-5V539.5
		C557.6,536.9,555.7,534.8,553.1,534.5z M547.6,665.6h-531V491.9l531,52.2V665.6z"/>
	<rect x="30.6" y="520.9" class="st0" width="32" height="28.3"/>
	<rect x="80.6" y="520.9" class="st0" width="32" height="28.3"/>
	<rect x="80.6" y="565.2" class="st0" width="32" height="28.3"/>
	<rect x="130.6" y="565.2" class="st0" width="32" height="28.3"/>
	<rect x="30.6" y="609.5" class="st0" width="32" height="28.3"/>
	<rect x="80.6" y="609.5" class="st0" width="32" height="28.3"/>
	<rect x="130.6" y="609.5" class="st0" width="32" height="28.3"/>
	<path class="st0" d="M644.6,88.1c0-32.6-14.9-73-42-73c-6.2,0-12.4,2.1-18.4,5.7c-4.9-3.6-10.4-5.7-16.6-5.7
		c-21.2,0-43.6,24.9-52.2,51.3c-5.4-3.3-11.6-5.2-18.8-5.2c-5.9,0-11.8,1.3-17.6,3.6c-4.5-27.4-18.5-54.1-40.4-54.1
		c-6.2,0-12.4,2.1-18.4,5.7c-4.9-3.6-10.4-5.7-16.6-5.7c-21.2,0-43.6,24.9-52.2,51.3c-5.4-3.3-11.6-5.2-18.8-5.2
		c-19.1,0-39.1,13.9-49.2,30c-1.9-31.1-16.6-66.3-41.8-66.3c-6.2,0-12.4,2.1-18.4,5.7c-4.9-3.6-10.4-5.7-16.6-5.7
		c-21.2,0-43.6,24.9-52.2,51.3c-5.4-3.3-11.6-5.2-18.8-5.2c-27.1,0-56,28-56,50.5c0,0.4,0,0.7,0,1.1c-1.3-0.1-2.6-0.2-4-0.2
		c-27.1,0-56,28-56,50.5c0,13,5,27.3,14.5,37c-8.7,9.2-14.5,20.3-14.5,30.3c0,22.5,14.9,48.7,42,48.7c10.6,0,21.5-4,30.8-10.3
		c7.1,8.7,17.2,14.7,30.2,14.7c23.7,0,48.7-20,54.7-40.1c3.2,1.3,6.7,2,10.3,2c21,0,43.2-22.9,52-48.4c5.4,3.1,11.8,5,19,5
		c7.7,0,15.6-2.1,22.9-5.7c1.4,2,3,3.9,4.7,5.6c-5.3,7.5-8.6,15.6-8.6,23.2c0,22.5,14.9,48.7,42,48.7c23.7,0,48.7-20,54.7-40.1
		c2.3,0.9,4.8,1.6,7.4,1.8c3.8,19.4,18,38.3,41,38.3c10.6,0,21.5-4,30.8-10.3c7.1,8.7,17.2,14.7,30.2,14.7c23.7,0,48.7-20,54.7-40.1
		c3.2,1.3,6.7,2,10.3,2c27.1,0,56-37.9,56-70.5c0-6.4-0.6-13-1.7-19.7C625,145.4,644.6,114.9,644.6,88.1z M325.5,161
		c4.8,5.1,11.7,7.6,20.6,7.6c9.6,0,19-2.9,28-8.7l8.9,18.4c-4.1,3.3-9.6,6-16.4,7.9c-6.8,1.9-13.8,2.9-21.1,2.9
		c-11.5,0-21.5-2.1-30.1-6.3c-8.6-4.1-15.2-10.1-19.8-17.7c-4.6-7.6-6.9-16.5-6.9-26.5c0-9.9,2.3-18.7,6.9-26.3
		c4.6-7.6,11.2-13.5,19.8-17.7c8.5-4.2,18.6-6.3,30.1-6.3c7.3,0,14.3,1,21.1,2.9c6.8,2,12.2,4.6,16.4,7.9l-8.9,18.4
		c-9-5.8-18.3-8.7-28-8.7c-8.9,0-15.7,2.5-20.6,7.4c-4.8,5-7.2,12.5-7.2,22.3C318.3,148.4,320.7,155.9,325.5,161z M497.4,165.4
		c-4.4,7.6-10.8,13.5-19.2,17.6c-8.3,4.1-18.2,6.1-29.5,6.1s-21.2-2-29.6-6.1c-8.4-4.1-14.9-10-19.4-17.6
		c-4.5-7.7-6.8-16.6-6.8-26.8s2.3-19.1,6.9-26.6c4.6-7.6,11-13.4,19.4-17.5c8.3-4.1,18.2-6.1,29.5-6.1s21.1,2,29.5,6.1
		c8.3,4.1,14.8,9.9,19.2,17.5c4.5,7.5,6.7,16.4,6.7,26.6C504.1,148.8,501.9,157.8,497.4,165.4z M554.5,230.5h-43.9v-4l24.8-24.5
		c3.5-3.6,6-6.8,7.6-9.5c1.5-2.8,2.3-5.5,2.3-8.2c0-3.7-1.2-6.5-3.6-8.5s-5.8-3-10.2-3c-6.9,0-13.6,2.5-20.1,7.5l-2.5-4.2
		c2.8-2.3,6.2-4.3,10.3-5.7c4.1-1.5,8.2-2.2,12.3-2.2c6.2,0,11,1.4,14.6,4.3c3.5,2.9,5.3,6.8,5.3,11.7c0,3.5-0.9,6.9-2.8,10.3
		c-1.8,3.4-4.8,7.1-9,11.2L518.7,226h35.8V230.5z"/>
	<path class="st0" d="M448.6,108.1c-8.3,0-14.8,2.5-19.5,7.7s-7,12.8-7,22.8c0,10.1,2.3,17.8,7,23s11.2,7.8,19.5,7.8
		c8.4,0,14.9-2.7,19.6-7.9s7.1-12.8,7.1-22.9c0-9.9-2.4-17.5-7.1-22.7C463.4,110.7,456.9,108.1,448.6,108.1z"/>
</g>
</svg>
