<?xml version="1.0" encoding="utf-8"?>
<!-- Generator: Adobe Illustrator 22.0.1, SVG Export Plug-In . SVG Version: 6.00 Build 0)  -->
<svg version="1.1" id="Layer_1" xmlns="http://www.w3.org/2000/svg" xmlns:xlink="http://www.w3.org/1999/xlink" x="0px" y="0px"
	 viewBox="0 0 442.7 341.4" style="enable-background:new 0 0 442.7 341.4;" xml:space="preserve">
<g>
	<path d="M29.9,188.8c-7.3,0-14-4.5-16.7-11.2c-2.9-6.8-1.3-14.5,4-19.8L157.9,17c3.4-3.4,8-5.3,12.8-5.3s9.4,1.9,12.8,5.3
		c3.4,3.4,5.3,8,5.3,12.8c0,4.8-1.9,9.4-5.3,12.8L73.6,152.6h339.7c9.9,0,18,8.1,18.1,18c0.1,4.8-1.7,9.3-5.1,12.8
		c-3.4,3.5-8.1,5.4-12.9,5.4H29.9z"/>
	<path d="M413.4,178.8H29.9c-3.3,0-6.3-2-7.5-5c-1.3-3-0.6-6.5,1.8-8.9L165,24.1c3.2-3.2,8.3-3.2,11.5,0s3.2,8.3,0,11.5l-127,127
		h363.8c4.5,0,8.1,3.6,8.1,8.1C421.5,175.2,417.8,178.8,413.4,178.8z"/>
	<path d="M170.7,329.7c-4.9,0-9.4-1.9-12.9-5.3L17,183.5c-5.1-5.1-6.7-12.8-4.1-19.6l0.1-0.2l0.1-0.2c2.9-6.7,9.4-11,16.7-11h383.5
		c10,0,18.1,8.1,18.1,18.1c0,10-8.1,18.1-18.1,18.1H73.6l109.9,109.9c3.4,3.4,5.3,8,5.3,12.8c0,4.8-1.9,9.3-5.2,12.7
		C180.3,327.7,175.7,329.7,170.7,329.7z"/>
	<path d="M170.7,319.7c-2.1,0-4.2-0.8-5.8-2.4L24.1,176.4c-2.3-2.3-3-5.8-1.8-8.9c1.3-3,4.2-5,7.5-5h383.5c4.5,0,8.1,3.6,8.1,8.1
		s-3.6,8.1-8.1,8.1H49.5l127,127c3.2,3.2,3.2,8.3,0,11.5C174.9,318.9,172.8,319.7,170.7,319.7z"/>
</g>
</svg>
