<?xml version="1.0" encoding="utf-8"?>
<!-- Generator: Adobe Illustrator 22.0.1, SVG Export Plug-In . SVG Version: 6.00 Build 0)  -->
<svg version="1.1" id="Layer_1" xmlns="http://www.w3.org/2000/svg" xmlns:xlink="http://www.w3.org/1999/xlink" x="0px" y="0px"
	 viewBox="0 0 604.9 501.8" style="enable-background:new 0 0 604.9 501.8;" xml:space="preserve">
<style type="text/css">
	.st0{fill:#003340;}
</style>
<path class="st0" d="M345.7,251.9L528.4,69.3c7.8-7.8,7.8-20.5,0-28.3l-14.1-14.1c-7.8-7.8-20.5-7.8-28.3,0L303.3,209.5L120.7,26.9
	c-7.8-7.8-20.5-7.8-28.3,0L78.3,41c-7.8,7.8-7.8,20.5,0,28.3l182.6,182.6L78.3,434.5c-7.8,7.8-7.8,20.5,0,28.3l14.1,14.1
	c7.8,7.8,20.5,7.8,28.3,0l182.6-182.6l182.6,182.6c7.8,7.8,20.5,7.8,28.3,0l14.1-14.1c7.8-7.8,7.8-20.5,0-28.3L345.7,251.9z"/>
</svg>
