<?xml version="1.0" encoding="utf-8"?>
<!-- Generator: Adobe Illustrator 22.0.1, SVG Export Plug-In . SVG Version: 6.00 Build 0)  -->
<svg version="1.1" id="Layer_1" xmlns="http://www.w3.org/2000/svg" xmlns:xlink="http://www.w3.org/1999/xlink" x="0px" y="0px"
	 viewBox="0 0 766.4 651.4" style="enable-background:new 0 0 766.4 651.4;" xml:space="preserve">
<style type="text/css">
	.st0{fill:#707070;}
</style>
<g>
	<path class="st0" d="M143.3,381.5l4.8-5.9c5.3-7,130.8-171.6,130.8-244.3c0-36.1-13.8-67.1-40-89.7c-24.7-21.3-58.5-33-95.5-33
		s-70.9,11.7-95.5,33c-26.2,22.6-40,53.6-40,89.7c0,72.7,125.5,237.3,130.8,244.2L143.3,381.5z M142.2,49.1
		c41.5,0,75.2,33.8,75.2,75.2c0,41.4-33.8,75.2-75.2,75.2c-41.4,0-75.2-33.8-75.2-75.2S100.7,49.1,142.2,49.1z"/>
	<path class="st0" d="M714.7,276.5c-24.7-21.3-58.6-33-95.5-33c-37,0-70.9,11.7-95.5,33c-26.2,22.6-40,53.6-40,89.7
		c0,72.7,125.5,237.3,130.8,244.3l4.6,6l4.8-6c5.3-7,130.8-171.6,130.8-244.3C754.7,330.1,740.9,299.1,714.7,276.5z M617.9,284.1
		c41.5,0,75.2,33.8,75.2,75.2s-33.8,75.2-75.2,75.2s-75.2-33.8-75.2-75.2C542.7,317.9,576.4,284.1,617.9,284.1z"/>
	<path class="st0" d="M619.7,629.3L317.4,528.9L145.7,390.7c-2.5-2-6.1-1.6-8.1,0.9s-1.6,6.1,0.9,8.1l173.3,139.6l304.3,101
		c0.6,0.2,1.2,0.3,1.8,0.3c2.4,0,4.7-1.6,5.5-4C624.4,633.6,622.7,630.3,619.7,629.3z"/>
	<polygon class="st0" points="256.5,464.2 298.4,464.2 298.4,398 333.4,464.2 364,464.2 398.7,397.2 399,464.2 441.2,464.2 
		441.2,317.9 403.7,317.9 349.1,417.8 294.3,317.9 256.5,317.9 	"/>
</g>
</svg>
