<?xml version="1.0" encoding="utf-8"?>
<!-- Generator: Adobe Illustrator 22.0.1, SVG Export Plug-In . SVG Version: 6.00 Build 0)  -->
<svg version="1.1" id="Layer_1" xmlns="http://www.w3.org/2000/svg" xmlns:xlink="http://www.w3.org/1999/xlink" x="0px" y="0px"
	 viewBox="0 0 971 718.7" style="enable-background:new 0 0 971 718.7;" xml:space="preserve">
<style type="text/css">
	.st0{fill:#707070;}
</style>
<g>
	<path class="st0" d="M875.2,450.2h-5.7c0.4-3.3,0.1-7.6-0.3-12.6c-1.4-19.7-4-56.3,25.1-95.9c45.8-62.4,61.3-101,61.3-152.8
		c0-48-18.7-93.2-52.7-127.2S823.8,9,775.7,9h-3.4c-48,0-93.2,18.7-127.2,52.7s-52.7,79.1-52.7,127.2c0,51.8,15.4,90.4,61.3,152.8
		c29.1,39.6,26.5,76.2,25.1,95.9c-0.4,5-0.7,9.3-0.3,12.6h-5.9c-10.9,0-19.8,8.9-19.8,19.8v9.2c0,10.9,8.9,19.8,19.8,19.8h24.8v39.5
		h-32c-2.3,0-4.2,1.9-4.2,4.2s1.9,4.2,4.2,4.2h32v44.6c0,2.3,1.9,4.2,4.2,4.2h68.9l-0.4,57.8c-0.2,41.2-29.3,49-83,49H244.8
		c-45.8,0-83-37.2-83-83v-23.8h24.4c49.1,0,89.1-40,89.1-89.1v-90h11.4c10.8,0,19.7-8.8,19.8-19.8v-9.2c0-10.9-8.9-19.8-19.8-19.8
		h-29V258.2c0-10.9-8.9-19.8-19.8-19.8H232c-10.9,0-19.8,8.9-19.8,19.8v109.6H111.4V258.2c0-10.9-8.9-19.8-19.8-19.8h-5.9
		c-10.9,0-19.8,8.9-19.8,19.8v109.6H35.3c-10.9,0-19.8,8.9-19.8,19.8v9.2c0,10.9,8.9,19.8,19.8,19.8h4.6v90
		c0,49.1,40,89.1,89.1,89.1h24.4v23.8c0,50.4,41,91.4,91.4,91.4h442.3c46.1,0,91.2-4.4,91.4-57.4l0.4-57.8h69c2.3,0,4.2-1.9,4.2-4.2
		v-44.6h30.3c2.3,0,4.2-1.9,4.2-4.2s-1.9-4.2-4.2-4.2h-30.3V499h23.1c10.9,0,19.8-8.8,19.8-19.8V470
		C895,459.1,886.1,450.2,875.2,450.2z M220.6,258.2c0-6.3,5.1-11.4,11.4-11.4h5.9c6.3,0,11.4,5.1,11.4,11.4v109.6h-28.7V258.2z
		 M74.3,258.2c0-6.3,5.1-11.4,11.4-11.4h5.9c6.3,0,11.4,5.1,11.4,11.4v109.6H74.3V258.2z M23.9,396.9v-9.2c0-6.3,5.1-11.4,11.4-11.4
		h34.8h37h109.3h37h33.3c6.3,0,11.4,5.1,11.4,11.4v9.2c0,6.3-5.1,11.4-11.4,11.4H272c-0.3-0.1-0.6-0.1-0.9-0.1h-227
		c-0.3,0-0.6,0-0.9,0.1h-7.9C29,408.3,23.9,403.2,23.9,396.9z M48.3,506.6v-90h218.6v90c0,44.5-36.2,80.7-80.7,80.7H129
		C84.5,587.3,48.3,551.1,48.3,506.6z M660.3,336.7c-44.6-60.8-59.7-98.1-59.7-147.8c0-94.6,76.9-171.5,171.5-171.5h3.4
		c94.6,0,171.5,76.9,171.5,171.5c0,49.7-15.1,87-59.7,147.8c-30.9,42.1-28.2,80.7-26.7,101.5c0.3,4.3,0.6,9.2,0.3,11.4
		c-0.1,0-0.3,0-0.5,0c-1.6-0.1-3.9-0.1-6.7-0.1c-5.7-0.1-13.6-0.1-22.5-0.1c-9.4,0-32.4,0-52.2,0.2V236l70.8-33.4c2.1-1,3-3.5,2-5.6
		c-1-2.1-3.5-3-5.6-2L779,226.7l-0.8-60.7c0-2.4-1.9-4.2-4.2-4.2c-0.1,0-0.1,0-0.1,0c-2.4,0.1-4.2,2-4.2,4.3l0.7,60.3l-61-31.3
		c-2.1-1.1-4.6-0.3-5.7,1.8c-1.1,2.1-0.3,4.6,1.8,5.7l65,33.3v213.7c-16.2-0.2-34.9-0.2-46.7-0.2c-2.9,0-5.4,0-7.4,0
		c-8.9,0-16.8,0.1-22.5,0.1c-2.8,0.1-5.1,0.1-6.7,0.1c-0.1,0-0.3,0-0.5,0c-0.3-2.2,0-7,0.3-11.4
		C688.5,417.4,691.2,378.8,660.3,336.7z M843.7,587.3H705.8V499h137.9V587.3z M886.6,479.3c0,6.3-5.1,11.4-11.4,11.4h-26.4
		c-0.3-0.1-0.6-0.1-0.9-0.1H701.6c-0.3,0-0.6,0-0.9,0.1h-28.1c-6.3,0-11.4-5.1-11.4-11.4v-9.2c0-6.3,5.1-11.4,11.4-11.4v-0.1h202.6
		c6.3,0,11.4,5.1,11.4,11.4V479.3z"/>
	<polygon class="st0" points="377.6,673.9 570.8,446 482.3,467.4 535.9,315.7 425.4,345.3 362.2,528.8 421.8,512.8 	"/>
</g>
</svg>
