<?xml version="1.0" encoding="utf-8"?>
<!-- Generator: Adobe Illustrator 22.0.1, SVG Export Plug-In . SVG Version: 6.00 Build 0)  -->
<svg version="1.1" id="Layer_1" xmlns="http://www.w3.org/2000/svg" xmlns:xlink="http://www.w3.org/1999/xlink" x="0px" y="0px"
	 viewBox="0 0 550.5 381.5" style="enable-background:new 0 0 550.5 381.5;" xml:space="preserve">
<g>
	<path d="M276.8,163.3c-43.1,1.2-66.2,33.9-68.7,37.6c-1.5,2.3-0.9,5.4,1.4,6.9c2.3,1.5,5.4,0.9,6.9-1.4
		c2.2-3.3,22.5-32.1,60.6-33.1c42-1.2,65.3,33.3,65.5,33.7c1,1.5,2.6,2.3,4.2,2.3c0.9,0,1.9-0.3,2.7-0.8c2.3-1.5,2.9-4.6,1.4-6.9
		C349.8,199.9,324.3,161.9,276.8,163.3z"/>
	<path d="M403.3,154.2c1,1.2,2.4,1.8,3.8,1.8c1.1,0,2.3-0.4,3.2-1.2c2.1-1.8,2.4-4.9,0.6-7c-4.7-5.5-17.9-19.8-38.6-33.3
		c-28.4-18.4-59.6-28-92.7-28.8c-69.8-1.6-116,38-128.5,50.2c-2,1.9-2,5.1-0.1,7.1c1.9,2,5.1,2,7.1,0.1
		c11.8-11.5,55.4-48.8,121.3-47.3C351.4,97.3,395.2,144.8,403.3,154.2z"/>
	<path d="M102.3,104.4c1.4,0,2.7-0.6,3.7-1.7C121.9,85,181.3,27,277.6,25.4C378,23.8,442.2,86.5,454,99.1c1.9,2,5.1,2.1,7.1,0.2
		c2-1.9,2.1-5.1,0.2-7.1c-6.8-7.2-25.8-25.9-55.1-42.9c-40-23.2-83.3-34.6-128.7-33.9C177.1,17.1,115.1,77.5,98.5,96
		c-1.8,2.1-1.7,5.2,0.4,7.1C99.9,104,101.1,104.4,102.3,104.4z"/>
	<path d="M487.4,256h-198c0-0.3,0.1-0.6,0.1-0.9l0.5-58.7c0-5.5-4.4-10-9.9-10.1c0,0-0.1,0-0.1,0c-5.5,0-10,4.4-10,9.9l-0.5,58.7
		c0,0.4,0,0.7,0.1,1.1H72.4c-28.9,0-52.5,23.6-52.5,52.5S43.5,361,72.4,361h415c28.9,0,52.5-23.6,52.5-52.5S516.4,256,487.4,256z
		 M487.4,351h-415C49,351,29.9,332,29.9,308.5S49,266,72.4,266h415c23.4,0,42.5,19.1,42.5,42.5S510.9,351,487.4,351z"/>
	<circle cx="479.9" cy="308.5" r="14.8"/>
	<circle cx="425.9" cy="308.5" r="14.8"/>
	<circle cx="371.9" cy="308.5" r="14.8"/>
	<circle cx="317.9" cy="308.5" r="14.8"/>
</g>
</svg>
