<?xml version="1.0" encoding="utf-8"?>
<!-- Generator: Adobe Illustrator 22.0.1, SVG Export Plug-In . SVG Version: 6.00 Build 0)  -->
<svg version="1.1" id="Layer_1" xmlns="http://www.w3.org/2000/svg" xmlns:xlink="http://www.w3.org/1999/xlink" x="0px" y="0px"
	 viewBox="0 0 673.8 442.4" style="enable-background:new 0 0 673.8 442.4;" xml:space="preserve">
<style type="text/css">
	.st0{fill:#003340;}
</style>
<g>
	<path class="st0" d="M39.8,73.4h594.3c16.4,0,29.7-13.3,29.7-29.7S650.5,14,634.1,14H39.8c-16.4,0-29.7,13.3-29.7,29.7
		C10.1,60.1,23.4,73.4,39.8,73.4z"/>
	<path class="st0" d="M634.1,192.3H39.8c-16.4,0-29.7,13.3-29.7,29.7s13.3,29.7,29.7,29.7h594.3c16.4,0,29.7-13.3,29.7-29.7
		S650.5,192.3,634.1,192.3z"/>
	<path class="st0" d="M634.1,370.6H39.8c-16.4,0-29.7,13.3-29.7,29.7S23.4,430,39.8,430h594.3c16.4,0,29.7-13.3,29.7-29.7
		S650.5,370.6,634.1,370.6z"/>
</g>
</svg>
