<?xml version="1.0" encoding="utf-8"?>
<!-- Generator: Adobe Illustrator 22.0.1, SVG Export Plug-In . SVG Version: 6.00 Build 0)  -->
<svg version="1.1" id="Layer_1" xmlns="http://www.w3.org/2000/svg" xmlns:xlink="http://www.w3.org/1999/xlink" x="0px" y="0px"
	 viewBox="0 0 746.5 494.6" style="enable-background:new 0 0 746.5 494.6;" xml:space="preserve">
<style type="text/css">
	.st0{fill:#707070;}
</style>
<g>
	<path class="st0" d="M17.5,130.6h315.2c4.5,0,8.2-3.7,8.2-8.2s-3.7-8.2-8.2-8.2H17.5c-4.5,0-8.2,3.7-8.2,8.2S13,130.6,17.5,130.6z"
		/>
	<path class="st0" d="M17.5,200.3H281c4.5,0,8.2-3.7,8.2-8.2s-3.7-8.2-8.2-8.2H17.5c-4.5,0-8.2,3.7-8.2,8.2S13,200.3,17.5,200.3z"/>
	<path class="st0" d="M315,261.9c0-4.5-3.7-8.2-8.2-8.2H17.5c-4.5,0-8.2,3.7-8.2,8.2s3.7,8.2,8.2,8.2h289.3
		C311.3,270.1,315,266.4,315,261.9z"/>
	<path class="st0" d="M533.2,164.9c15.4,12,33.9,18.4,53.4,18.4c3.7,0,7.4-0.3,11.1-0.7c23.1-2.9,43.8-14.6,58.1-33.1
		s20.6-41.4,17.7-64.5c-5.4-43.6-42.7-76.5-86.6-76.5c-3.7,0-7.4,0.2-11,0.7c-47.8,6-81.8,49.8-75.8,97.6
		C503,129.9,514.8,150.6,533.2,164.9z M578,25.4c3-0.4,5.9-0.6,8.9-0.6c35.7,0,66,26.7,70.4,62.4c2.4,18.8-2.7,37.4-14.4,52.4
		c-11.6,15-28.4,24.5-47.2,26.9c-3,0.4-6,0.6-9,0.6c-15.9,0-30.9-5.2-43.5-15c-15-11.7-24.5-28.5-26.9-47.3
		C511.5,65.9,539.1,30.3,578,25.4z"/>
	<path class="st0" d="M549.3,334.8L436,258.9l92.8-79.4c2-1.7,3.1-4.4,2.8-7c-0.2-2.6-1.8-5-4.1-6.3l-115.8-65.3
		c-1.2-0.7-2.6-1.1-4-1.1c-2,0-3.9,0.8-5.4,2.1l-103.8,92.9c-3.3,3-3.6,8.1-0.6,11.5c1.6,1.7,3.8,2.7,6.1,2.7c2,0,3.9-0.8,5.4-2.1
		l99.4-89l100.6,56.7l-92.2,78.9c-1.9,1.7-3,4.2-2.8,6.7c0.1,2.5,1.5,4.9,3.6,6.3l104.1,69.8l-127,15.9c-4.5,0.6-7.7,4.6-7.1,9.1
		c0.5,4,4,7.1,8.1,7.1c0.3,0,0.7,0,1,0l148.7-18.7c3.3-0.4,6.1-2.9,6.9-6.2S552.1,336.7,549.3,334.8z"/>
	<path class="st0" d="M415.6,275c0.6-2.1,0.3-4.3-0.8-6.2c-1.5-2.5-4.2-4.1-7.1-4.1c-1.5,0-2.9,0.4-4.1,1.1L48.3,471
		c-3.9,2.2-5.2,7.2-3,11.1c1.5,2.5,4.2,4.1,7.1,4.1c1.4,0,2.9-0.4,4.1-1.1L411.8,280C413.7,278.9,415,277.1,415.6,275z"/>
	<path class="st0" d="M736.2,232.1c-0.2-4.3-3.8-7.6-8.1-7.6h-0.4l-180.1,11.8l-5.4-42.8c-0.5-4-4-7.1-8.1-7.1c-0.3,0-0.7,0.1-1,0.1
		c-4.5,0.6-7.7,4.6-7.1,9.1l6.3,50.4c0.5,4,4,7.1,8.1,7.1l0.4-0.1l187.8-12.2C733.1,240.5,736.5,236.6,736.2,232.1z"/>
</g>
</svg>
