<?xml version="1.0" encoding="utf-8"?>
<!-- Generator: Adobe Illustrator 22.0.1, SVG Export Plug-In . SVG Version: 6.00 Build 0)  -->
<svg version="1.1" id="Layer_1" xmlns="http://www.w3.org/2000/svg" xmlns:xlink="http://www.w3.org/1999/xlink" x="0px" y="0px"
	 viewBox="0 0 636.4 526.2" style="enable-background:new 0 0 636.4 526.2;" xml:space="preserve">
<style type="text/css">
	.st0{fill:#707070;}
</style>
<g id="Vibration">
	<path class="st0" d="M424.7,7.1h-214c-11.9,0-21.5,9.6-21.5,21.5v470c0,11.9,9.6,21.5,21.5,21.5h214c11.9,0,21.5-9.6,21.5-21.5
		v-470C446.2,16.7,436.6,7.1,424.7,7.1z M279.1,20.1h77c1.9,0,3.5,1.6,3.5,3.5s-1.6,3.5-3.5,3.5h-77c-1.9,0-3.5-1.6-3.5-3.5
		S277.1,20.1,279.1,20.1z M344.4,505.8h-53.6c-8.4,0-15.2-6.8-15.2-15.2s6.8-15.2,15.2-15.2h53.6c8.4,0,15.2,6.8,15.2,15.2
		S352.7,505.8,344.4,505.8z M425.2,440.6c0,11.9-9.6,21.5-21.5,21.5h-172c-11.9,0-21.5-9.6-21.5-21.5V63.8
		c0-11.9,9.6-21.5,21.5-21.5h172c11.9,0,21.5,9.6,21.5,21.5V440.6z"/>
	<g>
		<g>
			<path class="st0" d="M168,478.1c-1.4,0-2.8-0.6-3.8-1.7L74.3,372.9c-1.6-1.9-1.6-4.6,0-6.5l86.8-101.6l-86.4-81.7
				c-1.8-1.7-2.1-4.5-0.6-6.5L164,51.2c1.6-2.2,4.7-2.8,7-1.1c2.2,1.6,2.8,4.7,1.1,7L84.7,178.9l86.7,82c1.9,1.8,2.1,4.9,0.4,6.9
				L84.7,369.6l87.1,100.2c1.8,2.1,1.6,5.2-0.5,7.1C170.4,477.7,169.2,478.1,168,478.1z"/>
			<path class="st0" d="M101.1,466.4c-1.4,0-2.7-0.5-3.7-1.6L7.5,366.6c-1.7-1.9-1.8-4.8,0-6.7l86.5-96L7.8,186.7
				C5.9,185,5.6,182,7.1,180l90-119c1.7-2.2,4.8-2.6,7-1c2.2,1.7,2.6,4.8,1,7L17.9,182.3l86.5,77.5c1,0.9,1.6,2.1,1.7,3.5
				c0.1,1.3-0.4,2.6-1.3,3.6l-86.9,96.4l86.8,94.8c1.9,2,1.7,5.2-0.3,7.1C103.5,466,102.3,466.4,101.1,466.4z"/>
		</g>
		<g>
			<path class="st0" d="M467.3,478.1c-1.2,0-2.3-0.4-3.3-1.2c-2.1-1.8-2.3-5-0.5-7.1l87.1-100.2l-87.1-101.9c-1.7-2-1.6-5.1,0.4-6.9
				l86.7-82L463.3,57c-1.6-2.2-1.1-5.4,1.1-7s5.4-1.1,7,1.1l89.9,125.4c1.5,2,1.2,4.8-0.6,6.5l-86.4,81.7L561,366.4
				c1.6,1.9,1.6,4.7,0,6.5l-89.9,103.5C470.1,477.5,468.7,478.1,467.3,478.1z"/>
			<path class="st0" d="M534.3,466.4c-1.2,0-2.4-0.4-3.4-1.3c-2-1.9-2.2-5-0.3-7.1l86.8-94.8l-86.9-96.4c-0.9-1-1.3-2.3-1.3-3.6
				c0.1-1.3,0.7-2.6,1.7-3.5l86.5-77.5L530.3,67.1c-1.7-2.2-1.2-5.3,1-7s5.3-1.2,7,1L628.2,180c1.6,2.1,1.3,5-0.7,6.7l-86.2,77.2
				l86.5,96c1.7,1.9,1.7,4.8,0,6.7L538,464.8C537,465.8,535.6,466.4,534.3,466.4z"/>
		</g>
	</g>
</g>
</svg>
