<?xml version="1.0" encoding="utf-8"?>
<!-- Generator: Adobe Illustrator 22.0.1, SVG Export Plug-In . SVG Version: 6.00 Build 0)  -->
<svg version="1.1" id="Layer_1" xmlns="http://www.w3.org/2000/svg" xmlns:xlink="http://www.w3.org/1999/xlink" x="0px" y="0px"
	 viewBox="0 0 653.1 601.6" style="enable-background:new 0 0 653.1 601.6;" xml:space="preserve">
<style type="text/css">
	.st0{fill:#707070;}
</style>
<path class="st0" d="M626.3,308.8L514,195.8V88.9c0-12.3-10-22.2-22.2-22.2h-37.5c-12.3,0-22.2,10-22.2,22.2V115L329.7,13
	c-0.9-0.9-2.2-1.5-3.5-1.5c0,0,0,0,0,0c-1.3,0-2.6,0.5-3.5,1.5L26.8,309.6c-1.4,1.4-1.9,3.6-1.1,5.5c0.8,1.9,2.6,3.1,4.6,3.1
	c0,0,0,0,0,0l67.7-0.1v267.1c0,2.8,2.2,5,5,5h149.2c2.8,0,5-2.2,5-5V439.2c0-13,10.6-23.6,23.6-23.6h91.3c13,0,23.6,10.6,23.6,23.6
	v145.9c0,2.8,2.2,5,5,5h149.2c2.8,0,5-2.2,5-5V317.4l67.7-0.1c2,0,3.8-1.2,4.6-3.1C628.2,312.4,627.8,310.3,626.3,308.8z
	 M550.1,307.4c-2.8,0-5,2.2-5,5v267.7H405.8V439.2c0-18.5-15.1-33.6-33.6-33.6h-91.3c-18.5,0-33.6,15.1-33.6,33.6v140.9H108.1V313
	c0-1.3-0.5-2.6-1.5-3.5c-0.9-0.9-2.2-1.5-3.5-1.5c0,0,0,0,0,0l-60.7,0.1L326.2,23.6l106.9,106.6c1,1,2.4,1.5,3.7,1.4
	c0.1,0,0.1,0,0.2,0c2.8,0,5-2.2,5-5V88.9c0-6.8,5.5-12.2,12.2-12.2h37.5c6.8,0,12.2,5.5,12.2,12.2v109c0,0,0,0,0,0v0
	c0,0.1,0,0.1,0,0.2c0,0.3,0,0.5,0.1,0.8c0,0.1,0.1,0.3,0.1,0.4c0,0.2,0.1,0.3,0.2,0.5c0.1,0.2,0.2,0.3,0.2,0.5
	c0.1,0.1,0.1,0.3,0.2,0.4c0.1,0.2,0.3,0.4,0.5,0.6c0,0,0.1,0.1,0.1,0.2l105.3,106L550.1,307.4z"/>
</svg>
